<svg xmlns="http://www.w3.org/2000/svg" xmlns:xlink="http://www.w3.org/1999/xlink" width="1080" zoomAndPan="magnify" viewBox="0 0 810 404.99999" height="540" preserveAspectRatio="xMidYMid meet" version="1.0"><path fill="#ffffff" d="M 194.972656 238.554688 C 194.941406 237.703125 194.796875 233.820312 194.109375 228.6875 C 193.425781 223.570312 192.519531 219.578125 191.992188 217.425781 C 190.773438 212.445312 189.4375 208.554688 188.625 206.316406 C 187.414062 202.988281 185.417969 197.628906 181.652344 191.164062 C 178.730469 186.152344 176.023438 182.691406 175.226562 181.691406 C 173.023438 178.902344 169.617188 175.015625 164.882812 170.96875 C 161.484375 168.066406 157.566406 164.707031 151.5625 161.804688 C 147.621094 159.902344 143.625 158.597656 142.234375 158.152344 C 142.234375 158.152344 141.054688 157.773438 134.007812 155.746094 C 133.367188 156.578125 132.476562 157.753906 131.417969 159.167969 C 129.863281 161.25 126.886719 165.242188 124.207031 169.265625 C 121.945312 172.667969 120.453125 175.285156 117.46875 180.53125 C 114.953125 184.949219 112.972656 188.425781 110.574219 193.269531 C 108.707031 197.023438 106.644531 201.1875 104.457031 206.941406 C 101.570312 214.546875 100.128906 220.558594 99.757812 222.171875 C 98.738281 226.539062 97.402344 232.421875 97.09375 240.269531 C 96.945312 244.070312 96.738281 250.3125 98.34375 258.292969 C 100.394531 268.476562 104.207031 275.539062 105.238281 277.40625 C 106.4375 279.550781 109.539062 284.835938 114.875 290.453125 C 118.285156 294.046875 121.34375 296.445312 123.808594 298.375 C 126.277344 300.308594 129.402344 302.742188 133.914062 305.289062 C 137.507812 307.320312 140.332031 308.488281 143.476562 309.796875 C 146.546875 311.074219 150.589844 312.609375 155.464844 314.066406 L 158.554688 315.046875 C 158.425781 314.90625 157.167969 313.578125 156.9375 313.324219 C 155.730469 312.042969 154.382812 310.417969 153.53125 309.25 C 153.128906 308.707031 151.996094 307.109375 150.300781 303.425781 C 149.460938 301.597656 147.988281 298.375 146.710938 293.8125 C 144.460938 285.765625 144.289062 278.894531 144.183594 273.1875 C 144.046875 265.929688 144.667969 260.414062 144.945312 258.214844 C 145.707031 252.183594 146.886719 247.152344 147.945312 243.417969 C 149.027344 239.582031 150.1875 236.316406 151.207031 233.75 C 151.980469 238.949219 152.980469 245.902344 154.058594 254.144531 C 154.78125 259.6875 155.5625 265.710938 156.40625 273.605469 C 157.789062 286.453125 158.476562 292.878906 158.582031 300.40625 C 158.652344 305.339844 158.582031 314.679688 158.582031 315.066406 L 158.640625 315.085938 C 159.523438 314.730469 160.710938 314.210938 162.042969 313.453125 C 163.171875 312.820312 164.25 312.121094 165.574219 311.125 C 166.460938 310.453125 169.71875 307.953125 173.917969 303.320312 C 174.839844 302.308594 175.847656 301.191406 177.09375 299.59375 C 179.511719 296.492188 180.96875 293.96875 182.574219 291.164062 C 183.890625 288.867188 185.414062 286.195312 187.039062 282.460938 C 188.605469 278.867188 189.496094 276.09375 190.566406 272.746094 C 191.40625 270.121094 192.074219 268.027344 192.761719 265.058594 C 193.050781 263.808594 193.753906 260.609375 194.25 256.359375 C 194.570312 253.609375 194.65625 251.65625 194.796875 248.589844 C 194.960938 245.078125 195.082031 242.289062 194.953125 238.566406 Z M 194.972656 238.554688 " fill-opacity="1" fill-rule="nonzero"/><path fill="#ffffff" d="M 387.125 182.878906 L 387.199219 161.082031 L 310.671875 161.082031 L 310.671875 275.160156 L 387.125 275.257812 L 387.125 253.589844 L 338.6875 253.5 L 338.867188 224.527344 L 383.222656 224.253906 L 383.222656 202.957031 L 338.6875 202.957031 L 338.6875 182.742188 Z M 387.125 182.878906 " fill-opacity="1" fill-rule="nonzero"/><path fill="#ffffff" d="M 427.214844 275.054688 C 427.214844 275.054688 427.421875 230.324219 427.375 207.878906 C 434.152344 207.902344 440.996094 207.832031 447.777344 207.859375 C 447.789062 204 447.523438 199.96875 447.539062 196.113281 C 447.542969 193.835938 447.5 191.457031 447.503906 189.179688 C 447.503906 189.179688 440.257812 189.222656 432.613281 189.210938 C 430.078125 189.210938 427.980469 189.210938 426.550781 189.210938 C 426.550781 189.210938 426.316406 186.089844 426.683594 183.929688 C 427.035156 181.863281 427.453125 179.382812 429.246094 177.433594 C 431.195312 175.3125 433.773438 174.898438 436.519531 174.453125 C 439.832031 173.925781 442.492188 174.324219 446.082031 174.859375 C 448.652344 175.246094 449.945312 175.441406 451.601562 175.941406 C 451.660156 175.960938 453.21875 176.351562 453.21875 176.351562 L 453.21875 156.855469 C 447.035156 155.863281 441.792969 155.496094 437.871094 155.367188 C 432.78125 155.199219 429.027344 155.101562 424.085938 156.0625 C 421.09375 156.644531 417.75 157.636719 414.164062 159.289062 C 411.757812 160.398438 407.25 163.558594 404.265625 169.195312 C 402.289062 172.929688 401.714844 176.589844 401.160156 180.160156 C 400.570312 183.953125 400.671875 186.875 400.730469 189.167969 C 397.316406 189.167969 393.5 189.199219 390.085938 189.199219 L 390.085938 207.917969 L 400.691406 207.882812 L 400.78125 275.257812 L 427.207031 275.054688 Z M 427.214844 275.054688 " fill-opacity="1" fill-rule="nonzero"/><path fill="#ffffff" d="M 458.507812 189.242188 L 484.910156 189.242188 L 484.910156 275.261719 L 458.507812 275.261719 Z M 458.507812 189.242188 " fill-opacity="1" fill-rule="nonzero"/><path fill="#ffffff" d="M 457.566406 156.003906 L 485.941406 156.003906 L 485.941406 176.96875 L 457.566406 176.96875 Z M 457.566406 156.003906 " fill-opacity="1" fill-rule="nonzero"/><path fill="#ffffff" d="M 664.835938 275.40625 C 664.769531 254.695312 664.699219 233.980469 664.636719 213.269531 C 664.597656 211.671875 664.390625 209.445312 663.621094 206.910156 C 663.25 205.679688 662.195312 202.523438 659.714844 199.261719 C 659.101562 198.449219 656.277344 194.84375 650.285156 191.746094 C 648.714844 190.933594 644.21875 188.796875 634.121094 187.546875 C 631.792969 187.257812 624.207031 186.410156 613.511719 187.277344 C 607.875 187.734375 600.425781 188.742188 591.828125 191.070312 C 591.871094 198.085938 591.917969 205.105469 591.960938 212.121094 L 594.316406 212.058594 C 598.28125 210.03125 601.855469 208.789062 604.617188 207.996094 C 610.503906 206.316406 615.148438 206.027344 616.402344 205.960938 C 619.1875 205.820312 622.472656 205.671875 626.636719 206.570312 C 630.65625 207.441406 633.648438 208.085938 635.933594 210.695312 C 638.570312 213.714844 638.679688 217.566406 638.628906 219.160156 C 637.410156 219.171875 635.71875 219.203125 633.714844 219.292969 C 625.921875 219.65625 619.941406 220.625 617.484375 221.054688 C 609.957031 222.378906 606.195312 223.035156 602 224.914062 C 597.875 226.75 592.863281 228.996094 589.136719 234.386719 C 585.777344 239.25 585.136719 244.257812 584.828125 246.980469 C 584.175781 252.617188 585.246094 256.914062 585.53125 257.984375 C 587.296875 264.671875 591.011719 268.773438 591.832031 269.652344 C 595.375 273.445312 599.109375 275.160156 600.316406 275.675781 C 605.082031 277.714844 609.152344 277.636719 612.707031 277.570312 C 615.554688 277.519531 620.484375 277.378906 626.238281 274.933594 C 632.402344 272.316406 636.402344 268.375 638.5625 265.863281 C 638.472656 269.046875 638.382812 272.226562 638.292969 275.410156 L 664.820312 275.410156 Z M 638.304688 252.863281 C 638.304688 252.863281 635.285156 256.875 629.089844 258.195312 C 627.585938 258.519531 621.207031 259.964844 617.164062 257.875 C 616.253906 257.402344 614.433594 256.433594 613.125 254.351562 C 611.480469 251.753906 611.671875 249.070312 611.777344 247.585938 C 611.875 246.238281 612.171875 243.605469 614.292969 241.136719 C 615.730469 239.457031 617.035156 238.730469 619.496094 237.792969 C 623.117188 236.421875 624.152344 236.1875 629.867188 235.625 C 635.390625 235.085938 636.132812 235.117188 638.304688 234.949219 C 638.304688 234.949219 638.304688 252.863281 638.304688 252.863281 Z M 638.304688 252.863281 " fill-opacity="1" fill-rule="nonzero"/><path fill="#ffffff" d="M 742.140625 214.417969 L 739.984375 214.417969 C 738.84375 213.5625 737.25 212.4375 735.269531 211.257812 C 733.375 210.128906 729.933594 208.117188 725.058594 206.59375 C 722.550781 205.8125 718.261719 204.511719 712.734375 204.730469 C 709.835938 204.847656 708.257812 205.3125 707.871094 205.425781 C 706.296875 205.90625 700.742188 207.601562 700.136719 211.585938 C 699.789062 213.890625 701.257812 215.792969 701.503906 216.109375 C 702.714844 217.675781 704.335938 218.230469 706.871094 219 C 711.398438 220.367188 713.667969 221.054688 715.289062 221.320312 C 720.5625 222.179688 728.304688 223.417969 734.726562 227.410156 C 736.960938 228.796875 742.3125 232.234375 744.933594 238.941406 C 746.226562 242.269531 746.414062 245.289062 746.382812 247.238281 C 746.359375 250.140625 745.898438 256.519531 741.667969 262.601562 C 738.128906 267.703125 733.726562 270.019531 729.949219 272.011719 C 721.523438 276.449219 713.824219 276.984375 708.335938 277.359375 C 705.527344 277.554688 698.957031 277.832031 690.691406 276.277344 C 683.054688 274.84375 676.941406 272.40625 672.644531 270.320312 C 672.691406 262.808594 672.734375 255.292969 672.78125 247.785156 C 673.496094 247.804688 674.21875 247.832031 674.9375 247.851562 C 675.433594 248.3125 676.175781 248.984375 677.121094 249.738281 C 678.820312 251.101562 684.773438 255.660156 694.132812 257.867188 C 695.226562 258.125 700.15625 259.242188 706.578125 258.949219 C 711.378906 258.730469 714.53125 257.835938 716.824219 255.847656 C 718.339844 254.53125 718.757812 253.363281 718.90625 252.726562 C 719.433594 250.511719 718.285156 248.648438 718.027344 248.257812 C 717.25 247.0625 716.25 246.476562 715.332031 245.953125 C 713.753906 245.050781 712.390625 244.792969 711.074219 244.527344 C 709.464844 244.207031 707.078125 243.714844 703.902344 243 C 702.773438 242.78125 701.195312 242.457031 699.308594 242.011719 C 697.996094 241.703125 693.910156 240.734375 691.023438 239.730469 C 689.023438 239.027344 684.496094 237.4375 680.722656 233.976562 C 672.957031 226.855469 673.078125 216.121094 673.109375 214.753906 C 673.257812 209.105469 675.226562 204.980469 675.871094 203.722656 C 680.832031 194.015625 690.671875 190.636719 695.128906 189.101562 C 699.921875 187.457031 703.621094 187.160156 708.058594 186.800781 C 712.945312 186.40625 725.382812 185.929688 739.371094 191.40625 C 740.570312 191.875 741.53125 192.289062 742.132812 192.550781 L 742.132812 214.410156 Z M 742.140625 214.417969 " fill-opacity="1" fill-rule="nonzero"/><path stroke-linecap="butt" transform="matrix(0.645008, 0, 0, 0.645017, -81.304233, -281.483067)" fill="none" stroke-linejoin="miter" d="M 730.937123 1016.008738 L 758.062502 941.258959 C 758.26841 940.677579 758.771069 940.30816 759.322176 940.30816 L 772.30045 940.30816 C 772.851557 940.30816 773.348159 940.677579 773.560123 941.258959 L 801.060982 1016.008738 C 801.430406 1017.020098 800.770288 1018.140466 799.801309 1018.140466 L 782.529243 1018.140466 C 781.959967 1018.140466 781.451253 1017.740767 781.251401 1017.141219 L 778.011374 1007.348592 C 777.811522 1006.749043 777.308864 1006.361456 776.739588 1006.349344 L 754.701353 1006.167663 C 754.119965 1006.167663 753.599139 1006.579474 753.411399 1007.197191 L 750.347 1017.098826 C 750.15926 1017.722599 749.638434 1018.128354 749.057046 1018.128354 L 732.19074 1018.128354 C 731.221761 1018.128354 730.561643 1017.020098 730.931067 1016.008738 Z M 730.937123 1016.008738 " stroke="#ffffff" stroke-width="4" stroke-opacity="1" stroke-miterlimit="10"/><path stroke-linecap="butt" transform="matrix(0.645008, 0, 0, 0.645017, -81.304233, -281.483067)" fill="none" stroke-linejoin="miter" d="M 760.109472 989.907179 L 771.900745 989.907179 C 773.08169 989.907179 773.911379 988.259934 773.511674 986.697474 L 767.619066 963.617882 C 767.080071 961.498266 764.942259 961.498266 764.397208 963.617882 L 758.510655 986.697474 C 758.110951 988.272046 758.94064 989.907179 760.121584 989.907179 Z M 760.109472 989.907179 " stroke="#ffffff" stroke-width="4" stroke-opacity="1" stroke-miterlimit="10"/><path stroke-linecap="butt" transform="matrix(0.645008, 0, 0, 0.645017, -81.304233, -281.483067)" fill="none" stroke-linejoin="miter" d="M 803.980034 1016.820248 L 803.980034 942.070469 C 803.980034 941.228679 804.57959 940.53829 805.318438 940.532234 L 820.519309 940.320272 C 821.28238 940.30816 821.900105 940.998549 821.900105 941.858508 L 821.900105 961.310528 C 821.900105 962.521737 823.068937 963.218183 823.977356 962.582298 C 824.510294 962.212879 825.097738 961.831348 825.727575 961.467985 C 826.902463 960.807876 829.760954 959.221192 833.648986 958.827549 C 835.259915 958.670092 840.32889 958.240113 845.258575 961.52249 C 849.81278 964.538401 851.381317 968.959315 852.192837 971.200052 C 853.058863 973.610358 853.337445 975.742086 853.440399 977.20765 C 853.440399 977.250042 853.440399 977.29849 853.440399 977.340883 L 853.440399 1016.578006 C 853.440399 1017.431909 852.82873 1018.122298 852.077771 1018.122298 L 836.998022 1018.122298 C 836.247063 1018.122298 835.64145 1017.437965 835.64145 1016.590118 C 835.593001 1004.901949 835.550608 993.201668 835.502159 981.507442 C 835.502159 981.410546 835.502159 981.307593 835.471879 981.210696 C 835.387093 980.762549 835.132736 979.460499 834.769368 978.60054 C 834.000241 976.771614 832.268189 975.857151 831.929046 975.699694 C 829.760954 974.597494 827.617086 975.197042 826.920632 975.390836 C 826.139392 975.602797 824.18932 976.147841 822.929646 978.067608 C 821.827432 979.751189 821.918273 981.477162 821.978835 982.070655 L 821.748702 1016.620399 C 821.748702 1017.462189 821.149146 1018.128354 820.410298 1018.152578 L 805.348718 1018.358484 C 804.591703 1018.370596 803.967922 1017.680207 803.967922 1016.820248 Z M 803.980034 1016.820248 " stroke="#ffffff" stroke-width="4" stroke-opacity="1" stroke-miterlimit="10"/><path stroke-linecap="butt" transform="matrix(0.645008, 0, 0, 0.645017, -81.304233, -281.483067)" fill="none" stroke-linejoin="miter" d="M 861.010554 1016.60223 L 861.010554 961.352921 C 861.010554 960.499018 861.622222 959.808629 862.367125 959.808629 L 877.392369 959.808629 C 878.137272 959.808629 878.748941 960.499018 878.748941 961.352921 L 878.748941 1016.60223 C 878.748941 1017.450077 878.137272 1018.140466 877.392369 1018.140466 L 862.367125 1018.140466 C 861.622222 1018.140466 861.010554 1017.450077 861.010554 1016.60223 Z M 861.010554 1016.60223 " stroke="#ffffff" stroke-width="4" stroke-opacity="1" stroke-miterlimit="10"/><path stroke-linecap="butt" transform="matrix(0.645008, 0, 0, 0.645017, -81.304233, -281.483067)" fill="none" stroke-linejoin="miter" d="M 863.917493 951.487621 L 871.65722 951.487621 C 872.081148 951.487621 872.480853 951.269604 872.741266 950.888073 L 883.708906 934.718429 C 884.399305 933.707069 883.757355 932.247562 882.630916 932.247562 L 868.217341 932.247562 C 867.617785 932.247562 867.090902 932.689654 866.921331 933.337651 L 862.621483 949.507294 C 862.361069 950.500486 863.009075 951.487621 863.917493 951.487621 Z M 863.917493 951.487621 " stroke="#ffffff" stroke-width="4" stroke-opacity="1" stroke-miterlimit="10"/><path fill="#ffffff" d="M 508.265625 363.191406 C 508.574219 362.875 509.039062 362.855469 509.375 363.132812 C 510.195312 363.816406 511.257812 364.625 512.644531 365.132812 C 515.238281 366.09375 517.761719 365.777344 518.921875 365.777344 C 520.835938 365.777344 522.203125 365.367188 522.828125 364.238281 C 523.253906 363.476562 523.121094 362.597656 522.515625 361.980469 C 522.183594 361.644531 521.875 361.261719 521.273438 361.160156 C 518.992188 360.765625 517.785156 360.722656 517.761719 360.722656 C 516.058594 360.636719 513.695312 360.367188 512.117188 360.074219 C 511.109375 359.890625 508.273438 359.367188 506.117188 357.191406 C 503.34375 354.398438 503.375 350.554688 503.382812 349.238281 C 503.390625 347.96875 503.726562 345.246094 505.699219 342.53125 C 507.621094 339.894531 509.976562 338.769531 512.425781 337.9375 C 514.488281 337.234375 519.269531 336.441406 526.914062 338.011719 C 526.957031 338.015625 527.007812 338.035156 527.054688 338.046875 C 529.691406 339.0625 531.027344 339.855469 531.757812 340.429688 C 531.808594 340.46875 532.046875 340.660156 532.324219 340.878906 C 532.789062 341.25 532.832031 342.007812 532.402344 342.433594 C 531.390625 343.441406 529.460938 345.351562 526.699219 348.089844 C 526.390625 348.402344 525.933594 348.40625 525.589844 348.144531 C 525.4375 348.019531 525.253906 347.910156 525.046875 347.808594 C 523.550781 347.105469 523.351562 347.074219 521.300781 346.679688 C 521.273438 346.679688 521.242188 346.671875 521.21875 346.667969 C 517.902344 346.371094 517.855469 346.414062 516.960938 346.554688 C 516.261719 346.667969 515.023438 346.886719 514.675781 347.945312 C 514.417969 348.730469 514.566406 349.644531 515.167969 350.15625 C 515.785156 350.679688 516.980469 350.820312 517.242188 350.839844 C 520.179688 351.027344 524.328125 351.566406 525.667969 351.828125 C 530.152344 352.691406 532.710938 356.617188 532.90625 357.019531 C 534.710938 360.675781 534 364.5 533.859375 365.410156 C 533.699219 366.460938 533.460938 368.472656 531.175781 370.933594 C 528.558594 373.75 525.578125 374.6875 522.054688 375.273438 C 517.496094 376.035156 514.980469 375.441406 513.101562 375.382812 C 512.734375 375.371094 506.046875 374.5625 504.003906 372.34375 C 503.710938 372.027344 502.910156 371.355469 502.273438 370.835938 C 501.820312 370.460938 501.78125 369.710938 502.203125 369.292969 L 508.253906 363.191406 Z M 508.265625 363.191406 " fill-opacity="1" fill-rule="nonzero"/><path fill="#ffffff" d="M 536.601562 340.035156 L 536.703125 374.132812 C 536.703125 374.679688 537.097656 375.117188 537.582031 375.117188 L 547.210938 375.117188 C 547.695312 375.117188 548.089844 374.671875 548.089844 374.125 L 548.089844 340.027344 C 548.089844 339.480469 547.695312 339.035156 547.210938 339.035156 L 537.472656 339.035156 C 536.988281 339.035156 536.59375 339.480469 536.59375 340.027344 Z M 536.601562 340.035156 " fill-opacity="1" fill-rule="nonzero"/><path fill="#ffffff" d="M 542.597656 321.722656 C 544.308594 321.753906 545.539062 322.453125 545.964844 322.703125 C 546.535156 323.039062 548.566406 324.328125 549.261719 326.953125 C 549.902344 329.347656 549.03125 331.289062 548.734375 331.875 C 548.367188 332.613281 547.410156 334.191406 545.445312 335.101562 C 542.910156 336.273438 540.554688 335.480469 540.027344 335.289062 C 539.542969 335.109375 537.148438 334.171875 535.988281 331.546875 C 534.632812 328.488281 536.089844 325.714844 536.257812 325.40625 C 537.574219 322.996094 540.179688 321.679688 542.605469 321.722656 Z M 542.597656 321.722656 " fill-opacity="1" fill-rule="nonzero"/><path fill="#ffffff" d="M 576.3125 363.941406 C 575.578125 364.625 574.269531 365.332031 572.960938 365.753906 C 571.4375 366.242188 570.199219 366.253906 569.542969 366.253906 C 568.359375 366.253906 567.398438 366.253906 566.257812 365.773438 C 565.761719 365.558594 564.484375 364.992188 563.601562 363.570312 C 563.179688 362.894531 562.96875 362.230469 562.871094 361.667969 C 562.761719 361.0625 563.1875 360.5 563.734375 360.496094 C 570.632812 360.464844 577.53125 360.429688 584.429688 360.398438 C 584.910156 360.398438 585.304688 359.953125 585.304688 359.40625 L 585.304688 353.238281 C 585.304688 353.199219 585.300781 353.160156 585.292969 353.121094 C 585.171875 351.949219 585.023438 350.671875 584.511719 349.039062 C 583.539062 345.925781 581.988281 343.898438 581.546875 343.339844 C 580.011719 341.414062 578.457031 340.339844 578.121094 340.105469 C 575.867188 338.578125 573.785156 338.074219 572.734375 337.828125 C 570.894531 337.398438 569.265625 337.332031 568 337.390625 C 566.585938 337.339844 564.136719 337.441406 561.441406 338.609375 C 558.59375 339.847656 556.917969 341.640625 556.066406 342.578125 C 554.132812 344.699219 553.210938 346.789062 552.847656 347.699219 C 552.171875 349.414062 551.964844 350.773438 551.757812 352.253906 C 551.539062 353.804688 551.160156 356.582031 551.621094 360.132812 C 552.046875 363.429688 552.570312 367.429688 555.667969 370.816406 C 555.984375 371.15625 557.613281 372.910156 560.351562 374.207031 C 563.148438 375.539062 565.574219 375.667969 568.039062 375.800781 C 569.921875 375.90625 572.316406 376.015625 575.308594 375.222656 C 576.46875 374.910156 578.71875 374.292969 581.136719 372.582031 C 582.054688 371.9375 582.796875 371.273438 583.382812 370.679688 C 583.777344 370.28125 583.777344 369.582031 583.375 369.191406 C 580.472656 366.328125 578.625 364.507812 577.765625 363.664062 C 577.441406 363.339844 576.957031 363.339844 576.628906 363.648438 C 576.480469 363.792969 576.351562 363.90625 576.328125 363.933594 Z M 563.058594 350.394531 C 563.21875 349.921875 563.832031 348.253906 565.601562 347.332031 C 567.128906 346.539062 568.601562 346.777344 569.277344 346.890625 C 569.902344 346.996094 570.902344 347.148438 571.863281 347.898438 C 572.980469 348.761719 573.65625 350.097656 573.777344 351.253906 C 573.832031 351.769531 573.902344 353.328125 573.875 352.808594 C 573.875 352.808594 570.300781 352.808594 563.652344 352.808594 C 563.125 352.808594 562.71875 352.285156 562.773438 351.691406 C 562.8125 351.296875 562.898438 350.851562 563.058594 350.382812 Z M 563.058594 350.394531 " fill-opacity="1" fill-rule="nonzero"/><path fill="#ffffff" d="M 599.390625 375.542969 C 599.875 375.542969 600.269531 375.097656 600.269531 374.558594 C 600.28125 367.757812 600.289062 360.953125 600.300781 354.15625 C 600.25 352.851562 600.238281 352.445312 600.230469 352.324219 C 600.230469 352.289062 600.230469 352.257812 600.230469 352.226562 C 600.277344 351.328125 600.636719 349.921875 601.8125 348.890625 C 603.269531 347.613281 605.035156 347.738281 605.320312 347.761719 C 606.675781 347.878906 607.566406 348.554688 607.75 348.703125 C 607.976562 348.886719 608.730469 349.515625 609.144531 350.601562 C 609.453125 351.425781 609.421875 352.140625 609.414062 352.347656 C 609.359375 353.910156 609.390625 362.566406 609.441406 374.613281 C 609.441406 375.164062 609.835938 375.609375 610.320312 375.609375 C 613.601562 375.601562 616.886719 375.589844 620.167969 375.582031 C 620.652344 375.582031 621.046875 375.128906 621.046875 374.582031 C 621.027344 360.378906 621.011719 352.878906 621.011719 352.878906 C 621.011719 352.878906 620.992188 350.820312 622.070312 349.453125 C 622.625 348.75 623.308594 348.425781 623.652344 348.273438 C 624.746094 347.777344 625.753906 347.828125 626.257812 347.890625 C 626.644531 347.945312 627.695312 348.097656 628.664062 348.929688 C 629.734375 349.851562 630.011719 351.007812 630.101562 351.394531 C 630.257812 352.078125 630.210938 352.625 630.203125 352.761719 C 630.101562 354.269531 630.128906 362.597656 630.230469 374.5625 C 630.230469 375.105469 630.625 375.550781 631.105469 375.550781 L 640.9375 375.550781 C 641.421875 375.550781 641.816406 375.105469 641.816406 374.558594 L 641.78125 352.59375 C 641.867188 354.316406 641.757812 349.125 641.394531 347.441406 C 641.242188 346.703125 640.757812 344.789062 639.363281 342.765625 C 638.78125 341.917969 637.628906 340.273438 635.460938 339.03125 C 633.824219 338.085938 632.363281 337.816406 631.28125 337.625 C 630.695312 337.519531 628.328125 337.132812 625.328125 337.726562 C 623.359375 338.113281 621.4375 338.863281 620.375 339.566406 C 620.207031 339.675781 619.417969 340.210938 618.453125 340.925781 C 618.160156 341.136719 617.917969 341.324219 617.753906 341.449219 C 617.179688 340.835938 616.890625 340.527344 616.742188 340.371094 C 616.742188 340.371094 616.601562 340.222656 616.589844 340.210938 C 616.316406 339.917969 614.296875 338.140625 610.828125 337.566406 C 610.300781 337.476562 607.480469 337.042969 604.367188 338.121094 C 603.726562 338.339844 602.308594 338.84375 600.8125 340.023438 C 600.40625 340.339844 600.089844 340.636719 599.871094 340.847656 L 599.871094 338.816406 C 599.871094 338.269531 599.476562 337.824219 598.992188 337.824219 C 595.832031 337.828125 592.671875 337.84375 589.511719 337.847656 C 589.027344 337.847656 588.632812 338.292969 588.632812 338.84375 L 588.632812 374.574219 C 588.632812 375.125 589.027344 375.570312 589.511719 375.570312 C 592.792969 375.570312 596.078125 375.5625 599.367188 375.554688 Z M 599.390625 375.542969 " fill-opacity="1" fill-rule="nonzero"/><path fill="#ffffff" d="M 678.980469 349.355469 C 678.980469 349.296875 678.980469 349.253906 678.96875 349.195312 C 678.894531 348.742188 678.527344 346.445312 678.167969 345.195312 C 677.148438 341.660156 674.199219 339.578125 673.839844 339.332031 C 671.015625 337.398438 668.097656 337.390625 666.582031 337.382812 C 666.144531 337.382812 664.125 337.398438 661.808594 338.191406 C 660.3125 338.707031 659.5 339.269531 659.164062 339.519531 C 659.164062 339.519531 659.152344 339.527344 659.144531 339.53125 C 658.558594 339.972656 657.777344 339.527344 657.765625 338.734375 L 657.765625 338.699219 C 657.765625 338.160156 657.367188 337.71875 656.886719 337.71875 L 647.375 337.738281 C 646.890625 337.738281 646.496094 338.183594 646.496094 338.734375 C 646.503906 354.742188 646.511719 370.757812 646.523438 386.765625 C 646.523438 387.316406 646.917969 387.761719 647.398438 387.761719 C 650.675781 387.761719 653.953125 387.765625 657.230469 387.773438 C 657.714844 387.773438 658.109375 387.328125 658.109375 386.78125 C 658.109375 382.804688 658.109375 378.839844 658.101562 374.867188 C 658.101562 374.085938 658.847656 373.621094 659.441406 374.027344 C 660.191406 374.539062 661.144531 375.054688 662.304688 375.421875 C 663.597656 375.828125 664.617188 375.871094 665.542969 375.910156 C 667.007812 375.976562 670.550781 376.125 673.769531 374.007812 C 674.910156 373.261719 675.652344 372.460938 675.933594 372.152344 C 676.972656 370.988281 677.5625 369.824219 677.882812 369.023438 C 677.894531 368.992188 677.910156 368.953125 677.921875 368.917969 C 678.167969 368.113281 678.347656 367.460938 678.464844 367.011719 L 678.863281 365.449219 C 678.882812 365.367188 678.894531 365.28125 678.894531 365.199219 L 679.023438 359.058594 C 679.023438 359.058594 678.992188 350.285156 678.984375 349.347656 Z M 667.503906 360.328125 C 667.441406 361.554688 667.394531 361.824219 667.394531 361.824219 C 667.28125 362.488281 667.027344 362.964844 666.910156 363.183594 C 666.742188 363.507812 666.34375 364.238281 665.519531 364.828125 C 664.460938 365.589844 663.359375 365.648438 662.90625 365.667969 C 662.433594 365.6875 661.660156 365.714844 660.808594 365.308594 C 659.785156 364.816406 659.269531 364.003906 659.070312 363.683594 C 658.121094 362.140625 658.132812 360.132812 658.132812 360.132812 C 658.183594 358.546875 658.179688 357.257812 658.164062 356.378906 C 658.132812 354.175781 658.023438 352.949219 658.46875 351.238281 C 658.6875 350.40625 658.972656 349.71875 659.546875 349.089844 C 660.191406 348.386719 660.914062 348.089844 661.132812 348.007812 C 661.914062 347.710938 662.570312 347.738281 662.988281 347.757812 C 663.527344 347.78125 664.570312 347.847656 665.578125 348.574219 C 666.390625 349.164062 666.761719 349.886719 666.945312 350.246094 C 667.371094 351.097656 667.460938 351.878906 667.472656 352.324219 C 667.492188 352.839844 667.503906 353.355469 667.511719 353.878906 C 667.558594 356.078125 667.550781 358.226562 667.492188 360.320312 Z M 667.503906 360.328125 " fill-opacity="1" fill-rule="nonzero"/><path fill="#ffffff" d="M 683.132812 374.5625 L 683.09375 338.714844 C 683.09375 338.164062 683.488281 337.71875 683.972656 337.71875 C 687.125 337.71875 690.28125 337.707031 693.433594 337.699219 C 693.925781 337.699219 694.316406 338.144531 694.3125 338.699219 C 694.3125 339.429688 694.300781 340.164062 694.300781 340.894531 C 694.5625 340.617188 694.945312 340.242188 695.433594 339.855469 C 696.683594 338.875 697.847656 338.421875 698.402344 338.214844 C 701.625 336.996094 704.792969 337.507812 705.554688 337.648438 C 706.6875 337.855469 708.335938 338.160156 709.945312 339.253906 C 709.945312 339.253906 710.132812 339.382812 712.171875 340.933594 L 704.019531 349.195312 C 703.695312 349.515625 703.226562 349.53125 702.882812 349.234375 C 702.710938 349.078125 702.503906 348.917969 702.269531 348.761719 C 701.824219 348.472656 700.523438 347.640625 698.769531 347.820312 C 698.367188 347.859375 696.96875 348.007812 695.925781 349.109375 C 695.09375 349.996094 694.925781 351.027344 694.738281 352.148438 C 694.503906 353.574219 694.632812 355.019531 694.640625 355.019531 C 694.640625 355.019531 694.640625 354.839844 694.640625 354.839844 C 694.652344 354.839844 694.671875 363.109375 694.699219 374.5625 C 694.699219 375.113281 694.304688 375.5625 693.820312 375.5625 L 684.011719 375.550781 C 683.527344 375.550781 683.132812 375.105469 683.132812 374.5625 Z M 683.132812 374.5625 " fill-opacity="1" fill-rule="nonzero"/><path fill="#ffffff" d="M 734.671875 364.320312 C 734.40625 364.527344 733.507812 365.199219 732.140625 365.71875 C 731.566406 365.9375 730.378906 366.382812 728.769531 366.417969 C 728.128906 366.429688 726.949219 366.441406 725.5625 365.914062 C 724.988281 365.695312 724.136719 365.359375 723.3125 364.550781 C 723.125 364.367188 722.3125 363.554688 721.847656 362.183594 C 721.796875 362.035156 721.757812 361.894531 721.71875 361.753906 C 721.558594 361.128906 721.988281 360.507812 722.570312 360.507812 C 729.476562 360.5 736.386719 360.496094 743.300781 360.488281 C 743.796875 360.488281 744.191406 360.023438 744.175781 359.464844 C 744.136719 357.765625 744.113281 356.40625 744.101562 355.425781 C 744.085938 354.375 744.082031 353.683594 743.984375 352.671875 C 743.90625 351.859375 743.789062 350.710938 743.429688 349.355469 C 743.234375 348.628906 742.746094 346.996094 741.65625 345.167969 C 741.03125 344.117188 739.757812 342.042969 737.277344 340.304688 C 734.980469 338.707031 732.824219 338.222656 731.289062 337.882812 C 730.097656 337.617188 727.761719 337.121094 724.730469 337.53125 C 721.589844 337.964844 719.382812 339.140625 718.660156 339.550781 C 715.863281 341.136719 714.28125 343.125 713.835938 343.71875 C 711.960938 346.1875 711.386719 348.535156 710.894531 350.53125 C 710.011719 354.148438 710.199219 357.058594 710.351562 359.320312 C 710.480469 361.257812 710.578125 362.738281 711.183594 364.6875 C 711.625 366.101562 712.402344 368.539062 714.539062 370.867188 C 716.957031 373.511719 719.738281 374.511719 721.183594 375.007812 C 724.125 376.027344 726.5625 376.007812 728.464844 375.980469 C 730.195312 375.957031 732.734375 375.890625 735.746094 374.78125 C 738.625 373.726562 740.753906 372.136719 742.210938 370.785156 C 742.621094 370.394531 742.621094 369.679688 742.222656 369.28125 C 740.347656 367.417969 738.460938 365.550781 736.585938 363.6875 C 736.257812 363.367188 735.773438 363.359375 735.445312 363.675781 C 735.226562 363.882812 734.972656 364.101562 734.6875 364.328125 Z M 721.660156 351.722656 C 721.660156 351.722656 721.660156 351.679688 721.660156 351.652344 C 721.710938 351.136719 721.964844 349.464844 723.382812 348.195312 C 724.90625 346.839844 726.730469 346.867188 727.457031 346.871094 C 727.949219 346.871094 728.902344 346.898438 729.949219 347.433594 C 730.8125 347.871094 731.324219 348.453125 731.464844 348.613281 C 731.546875 348.710938 731.910156 349.144531 732.207031 349.808594 C 732.445312 350.34375 732.527344 350.769531 732.65625 351.445312 C 732.671875 351.511719 732.683594 351.582031 732.695312 351.644531 C 732.804688 352.257812 732.386719 352.828125 731.839844 352.828125 C 728.425781 352.839844 725.019531 352.84375 721.609375 352.859375 C 721.621094 352.476562 721.640625 352.097656 721.652344 351.722656 Z M 721.660156 351.722656 " fill-opacity="1" fill-rule="nonzero"/><path fill="#ffffff" d="M 577.113281 189.179688 L 551.222656 189.179688 L 550.53125 193.347656 L 549.933594 192.894531 C 547.5 191.210938 543.464844 188.863281 537.992188 187.566406 C 536.167969 187.132812 531.429688 186.167969 525.34375 186.914062 C 518.835938 187.714844 514.277344 190.0625 513.050781 190.71875 C 511.769531 191.410156 507.324219 193.894531 503.078125 198.835938 C 498.558594 204.097656 496.726562 209.265625 495.824219 211.890625 C 493.921875 217.4375 493.628906 222.015625 493.367188 226.136719 C 493.101562 230.3125 493.28125 233.59375 493.410156 235.996094 C 493.617188 239.761719 493.765625 242.464844 494.578125 246.128906 C 494.972656 247.914062 495.824219 251.269531 497.566406 255.222656 C 498.449219 257.226562 499.210938 258.964844 500.660156 261.074219 C 501.429688 262.195312 503.484375 265.019531 507.015625 267.714844 C 508.050781 268.507812 510.585938 270.335938 514.285156 271.792969 C 514.988281 272.070312 517.6875 273.101562 521.421875 273.65625 C 524.539062 274.113281 526.925781 274.03125 528.738281 273.953125 C 530.640625 273.875 532.949219 273.765625 535.910156 273.042969 C 537.917969 272.554688 539.839844 271.933594 541.304688 271.230469 C 545.371094 269.277344 547.539062 267.820312 548.488281 267.027344 C 548.578125 266.949219 549.882812 266.050781 550.363281 265.710938 C 550.421875 266.660156 550.476562 267.988281 550.417969 269.566406 C 550.332031 271.972656 550.253906 274.261719 549.398438 276.914062 C 548.90625 278.421875 548.21875 280.558594 546.367188 282.597656 C 544.515625 284.640625 542.476562 285.511719 540.742188 286.226562 C 540.011719 286.53125 537.117188 287.6875 531.867188 288.027344 C 525.648438 288.429688 520.835938 287.382812 517.554688 286.667969 C 514.246094 285.945312 511.4375 285.007812 510.199219 284.558594 C 510.007812 284.488281 509.03125 284.117188 507.757812 283.609375 C 506.8125 283.230469 506.027344 282.898438 505.472656 282.660156 C 504.332031 282.570312 503.371094 282.640625 502.046875 282.609375 C 502.015625 289.886719 501.976562 296.941406 501.945312 304.21875 C 501.945312 304.21875 511.742188 306.082031 521.578125 307.09375 C 525.945312 307.546875 531.769531 308.171875 539.640625 307.230469 C 545.464844 306.535156 549.589844 305.796875 550.921875 305.390625 C 555.589844 303.953125 559.878906 302.300781 564.363281 298.554688 C 567.75 295.722656 569.824219 293.070312 570.714844 291.683594 C 573.339844 287.601562 574.398438 283.976562 575.171875 281.332031 C 575.476562 280.292969 576.457031 276.8125 576.921875 272.121094 C 577.070312 270.617188 577.125 269.347656 577.152344 268.414062 C 577.132812 242.160156 577.113281 215.914062 577.105469 189.191406 Z M 547.277344 250.546875 C 546.496094 250.957031 544.507812 251.925781 540.910156 252.492188 C 537.148438 253.085938 534.492188 253.511719 531.207031 252.46875 C 530.09375 252.113281 526.460938 250.90625 523.914062 247.390625 C 522.507812 245.457031 522.089844 243.726562 521.347656 240.644531 C 521.101562 239.621094 520.238281 235.867188 520.300781 230.410156 C 520.347656 226.660156 520.386719 223.746094 521.597656 220.070312 C 522.398438 217.644531 523.589844 214.023438 527.027344 211.050781 C 527.53125 210.613281 529.898438 208.625 533.535156 207.585938 C 535.976562 206.890625 538.019531 206.902344 540.523438 206.917969 C 542.753906 206.929688 544.613281 207.125 545.933594 207.316406 C 546.238281 207.472656 547.773438 208.027344 550.539062 208.980469 C 550.539062 222.101562 550.539062 235.21875 550.539062 248.339844 C 549.804688 248.964844 548.714844 249.796875 547.277344 250.550781 Z M 547.277344 250.546875 " fill-opacity="1" fill-rule="nonzero"/><path fill="#346db5" d="M 158.773438 301.914062 C 158.863281 306.40625 158.789062 310.71875 158.605469 314.855469 C 157 313.441406 154.828125 311.292969 152.738281 308.351562 C 149.75 304.148438 148.125 299.988281 146.757812 294.878906 C 143.339844 282.09375 143.511719 270.714844 143.539062 269.503906 C 143.714844 261.523438 145.011719 248.824219 151.058594 233.898438 C 152.832031 247.429688 154.613281 260.949219 156.394531 274.476562 C 157.679688 282.765625 158.585938 291.957031 158.769531 301.914062 Z M 158.773438 301.914062 " fill-opacity="1" fill-rule="nonzero"/><path fill="#6caec9" d="M 92.035156 137.804688 C 96.742188 141.914062 101.046875 144.613281 104.136719 146.324219 C 113.570312 151.554688 122.558594 153.621094 129.238281 155.109375 C 131.394531 155.585938 133.175781 155.921875 134.335938 156.128906 C 132.40625 158.539062 129.859375 161.855469 127.046875 165.933594 C 121.214844 174.394531 117.589844 181.308594 114.558594 187.078125 C 110.734375 194.363281 107.992188 199.558594 105.199219 207.109375 C 103.601562 211.4375 101.058594 218.410156 99.511719 227.617188 C 98.242188 235.15625 96.390625 246.160156 99.523438 259.871094 C 100.574219 264.472656 103.277344 275.753906 111.746094 286.074219 C 114.796875 289.796875 118.191406 292.890625 119.730469 294.289062 C 125.125 299.1875 130.1875 302.613281 133.933594 304.882812 C 142.597656 309.210938 147.957031 311.324219 151.296875 312.453125 C 151.296875 312.453125 151.433594 312.5 158.414062 314.847656 C 154.503906 314.164062 150.601562 313.480469 146.691406 312.804688 C 143.964844 312.519531 140.289062 311.972656 136.042969 310.824219 C 133.378906 310.105469 129.148438 308.867188 123.351562 305.992188 C 115.496094 302.101562 106.730469 297.753906 97.261719 288.964844 C 91.789062 283.878906 83.765625 276.429688 78.535156 263.957031 C 77.199219 260.777344 75.257812 255.382812 73.882812 244.703125 C 71.570312 226.738281 73.144531 211.671875 74.671875 201.335938 C 76.859375 186.496094 81.457031 164.351562 92.035156 137.796875 Z M 92.035156 137.804688 " fill-opacity="1" fill-rule="nonzero"/><path fill="#6caec9" d="M 183.386719 100.40625 C 182.847656 100.945312 171.976562 111.820312 165.023438 119.257812 C 162.59375 121.859375 160.523438 124.117188 158.214844 126.730469 C 156.542969 128.617188 155.503906 129.871094 152.183594 133.625 C 144.152344 142.691406 142.171875 145.085938 139.835938 148.386719 C 138.664062 150.046875 134.433594 156.128906 134.433594 156.128906 C 136.6875 156.765625 139.042969 157.515625 141.488281 158.390625 C 145.828125 159.953125 149.738281 161.667969 153.207031 163.402344 C 156.167969 165.191406 159.398438 167.363281 162.746094 170.003906 C 165.753906 172.371094 168.378906 174.730469 170.628906 176.957031 C 175.925781 182.941406 179.550781 188.59375 181.960938 192.902344 C 183.105469 194.9375 188.449219 204.671875 191.695312 218.722656 C 193.554688 226.757812 194.035156 233.246094 194.199219 236.277344 C 194.449219 241 194.292969 244.46875 194.003906 251.09375 C 193.902344 253.402344 193.757812 255.738281 193.332031 258.652344 C 192.972656 261.128906 192.535156 263.109375 192.21875 264.542969 C 191.964844 265.683594 191.425781 268.039062 190.554688 271.003906 C 190.089844 272.59375 189.257812 275.429688 187.851562 279.035156 C 186.636719 282.152344 184.941406 285.988281 182.59375 290.203125 C 181.402344 292.335938 180.304688 294.105469 179.453125 295.417969 C 178.640625 296.683594 177.449219 298.445312 175.898438 300.449219 C 173.925781 303.003906 171.828125 305.683594 168.488281 308.519531 C 166.289062 310.382812 164.328125 311.667969 163.160156 312.378906 C 161.425781 313.433594 159.832031 314.234375 158.515625 314.835938 C 159.671875 314.265625 161.285156 313.449219 163.160156 312.378906 C 165.347656 311.132812 168.8125 309.140625 172.746094 305.972656 C 175.363281 303.863281 177.113281 302.101562 179.144531 300.058594 C 180.195312 299 182.554688 296.5625 185.375 293.214844 C 186.582031 291.78125 190.339844 287.234375 194.914062 279.972656 C 196.410156 277.597656 201.171875 269.859375 206.164062 258.34375 C 212.632812 243.417969 215.722656 230.820312 217.101562 224.429688 C 218.28125 218.972656 220.269531 209.59375 220.851562 196.988281 C 221.535156 182.046875 219.863281 170.894531 219.484375 168.449219 C 218.675781 163.28125 217.191406 154.121094 212.792969 142.835938 C 212.234375 141.394531 206.832031 127.753906 197.824219 115.917969 C 194.683594 111.789062 191.25 108.085938 191 107.808594 C 188.726562 105.367188 186.199219 102.871094 183.394531 100.386719 Z M 183.386719 100.40625 " fill-opacity="1" fill-rule="nonzero"/><path fill="#346db5" d="M 152.550781 16.675781 C 152.375 17.230469 152.097656 18.050781 151.699219 19.015625 C 151.375 19.796875 151.027344 20.558594 149.730469 23.011719 C 148.738281 24.886719 148.242188 25.820312 147.582031 26.96875 C 146.550781 28.761719 145.707031 30.039062 145.3125 30.699219 C 143.371094 33.996094 142.964844 34.535156 140.25 39.039062 C 137.824219 43.0625 135.226562 47.367188 132.140625 52.925781 C 131.714844 53.6875 131.59375 53.925781 128.511719 59.632812 C 121.390625 72.84375 121.449219 72.734375 121.332031 72.953125 C 119.835938 75.765625 116.273438 82.527344 112.035156 91.253906 C 111.082031 93.21875 108.097656 99.398438 104.40625 107.628906 C 102.375 112.15625 101.015625 115.203125 99.226562 119.523438 C 95.460938 128.65625 92.113281 137.925781 92.113281 137.925781 C 92.539062 138.3125 93.117188 138.835938 93.828125 139.449219 C 95.125 140.558594 96.152344 141.371094 96.433594 141.589844 C 98.414062 143.132812 100.394531 144.265625 102.792969 145.640625 C 104.582031 146.660156 106.1875 147.574219 108.496094 148.679688 C 110.25 149.515625 112.667969 150.585938 115.628906 151.632812 C 118.441406 152.625 120.550781 153.179688 123.035156 153.824219 C 126.644531 154.765625 129.921875 155.445312 130.753906 155.617188 C 131.238281 155.722656 134.089844 156.308594 134.089844 156.308594 C 134.398438 155.859375 134.84375 155.207031 135.398438 154.425781 C 137.398438 151.601562 139 149.589844 140.460938 147.757812 C 144.539062 142.640625 146.570312 140.085938 147.242188 139.273438 C 151.5625 134.011719 154.960938 130.148438 155.644531 129.367188 C 159.820312 124.621094 162.960938 121.335938 167.480469 116.609375 C 175.480469 108.25 183.355469 100.410156 183.382812 100.378906 C 183.613281 99.910156 180.832031 97.257812 180.832031 97.257812 C 180.324219 96.773438 180.78125 97.160156 177.460938 93.128906 C 176.589844 92.078125 175.363281 90.601562 173.847656 88.820312 C 172.617188 87.175781 170.964844 84.855469 169.191406 81.945312 C 167.460938 79.105469 166.425781 77.03125 164.519531 73.1875 C 161.722656 67.546875 160.210938 64.503906 158.566406 60.027344 C 158.246094 59.144531 157.097656 55.988281 155.941406 51.707031 C 155.144531 48.746094 153.828125 43.339844 153.035156 36.425781 C 152.867188 34.957031 152.34375 30.183594 152.324219 23.878906 C 152.316406 21.011719 152.414062 18.558594 152.523438 16.675781 Z M 152.550781 16.675781 " fill-opacity="1" fill-rule="nonzero"/><path fill="#b9bd30" d="M 158.546875 314.652344 C 155.660156 314.375 152.167969 313.933594 148.242188 313.171875 C 146.152344 312.765625 141.65625 311.835938 136.113281 310.085938 C 125.355469 306.699219 117.410156 302.386719 114.074219 300.476562 C 109.703125 297.972656 104.257812 294.820312 98.058594 289.3125 C 89.882812 282.046875 85.289062 275.050781 84.203125 273.367188 C 78.574219 264.601562 76.308594 256.945312 75.859375 255.371094 C 74.070312 249.144531 73.710938 244.257812 73.257812 238.140625 C 72.738281 231.058594 72.957031 225.65625 73.148438 221.339844 C 73.496094 213.476562 74.335938 207.277344 74.882812 203.3125 C 75.058594 202.066406 75.496094 198.945312 76.199219 194.914062 C 76.582031 192.746094 77.4375 188.003906 79.019531 181.179688 C 80 176.941406 82.128906 167.71875 85.675781 156.652344 C 88.320312 148.394531 92.183594 137.6875 92.183594 137.6875 C 91.695312 137.261719 91.023438 136.660156 90.253906 135.921875 C 89.695312 135.378906 88.234375 133.945312 86.410156 131.746094 C 84.804688 129.816406 82.832031 127.449219 80.78125 123.972656 C 79.871094 122.4375 77.058594 117.492188 75.644531 112.046875 C 75.644531 112.046875 75.625 111.984375 74.445312 107.289062 C 74.085938 108.917969 73.550781 111.34375 72.871094 114.285156 C 70.679688 123.859375 69.789062 126.953125 68.613281 132.042969 C 67.339844 137.566406 66.414062 142.90625 64.570312 153.585938 C 63.460938 160.019531 62.628906 164.816406 61.679688 171.460938 C 60.746094 178 59.699219 185.398438 58.921875 195.25 C 58.164062 204.742188 58.003906 212.089844 57.960938 215.179688 C 57.875 220.835938 57.777344 228.054688 58.457031 237.476562 C 59.011719 245.222656 59.507812 252.121094 61.558594 261.1875 C 62.53125 265.503906 64.191406 272.644531 68.039062 281.402344 C 70.117188 286.125 72.414062 291.335938 76.910156 297.328125 C 79.367188 300.605469 84.597656 307.4375 93.898438 313.09375 C 102.273438 318.183594 109.765625 319.78125 113.507812 320.542969 C 122.53125 322.382812 129.621094 321.828125 133.425781 321.496094 C 142.824219 320.691406 150.722656 318.242188 156.789062 315.679688 L 158.5625 314.648438 Z M 158.546875 314.652344 " fill-opacity="1" fill-rule="nonzero"/><path fill="#b9bd30" d="M 158.8125 314.707031 C 158.78125 314.242188 160.140625 314.054688 162.972656 312.636719 C 165.480469 311.378906 167.070312 310.195312 169.828125 308.125 C 175.28125 304.023438 179.304688 300.003906 179.96875 299.335938 C 188.839844 290.40625 194.269531 281.339844 197.625 275.664062 C 199.003906 273.320312 201.808594 268.425781 204.796875 261.910156 C 207.5625 255.875 209.335938 250.953125 210.59375 247.4375 C 211.246094 245.617188 212.246094 242.820312 213.394531 239.050781 C 214.878906 234.195312 215.929688 229.949219 216.65625 226.660156 C 216.984375 225.191406 218.515625 218.230469 219.65625 208.640625 C 220.167969 204.355469 220.675781 199.976562 220.832031 194.042969 C 220.980469 188.316406 220.714844 183.929688 220.507812 180.582031 C 220.28125 176.949219 220 172.285156 219.09375 166.5 C 217.484375 156.148438 214.882812 148.484375 214.195312 146.503906 C 212.804688 142.519531 210.085938 135.441406 205.3125 127.265625 C 202.765625 122.898438 199.304688 117.039062 193.425781 110.636719 C 189.804688 106.695312 183.472656 100.585938 183.472656 100.585938 C 183.472656 100.585938 185.582031 98.4375 185.832031 98.1875 C 188.269531 95.710938 191.457031 92.761719 195.089844 89.363281 C 199.675781 85.074219 198.75 85.878906 200.578125 84.203125 C 204.996094 80.140625 205.472656 79.945312 210.820312 75.128906 C 214.378906 71.921875 218.464844 68.136719 218.464844 68.136719 C 218.464844 68.136719 216.894531 71.929688 215.890625 74.992188 C 215.65625 75.703125 214.800781 78.351562 214.136719 81.886719 C 213.75 83.929688 213.058594 88.207031 213.175781 93.730469 C 213.238281 96.792969 213.527344 99.082031 213.742188 100.753906 C 214.523438 106.777344 215.839844 111.332031 216.367188 113.046875 C 216.882812 114.730469 218.835938 120.910156 223.003906 128.269531 C 225.738281 133.101562 228.3125 136.476562 230.660156 139.550781 C 233.570312 143.363281 235.234375 145.542969 237.941406 148.285156 C 239.691406 150.058594 241.804688 151.988281 244.703125 155.445312 C 245.800781 156.753906 246.597656 157.804688 246.933594 158.242188 C 247.765625 159.335938 250.351562 162.8125 253.273438 168.183594 C 254.777344 170.945312 257.054688 175.175781 259.09375 181.117188 C 259.5 182.308594 261.414062 187.980469 262.550781 195.835938 C 263.078125 199.511719 263.722656 205.601562 263.332031 213.128906 C 262.96875 219.925781 261.917969 224.953125 261.039062 229.152344 C 260.410156 232.175781 259.53125 236.296875 257.777344 241.542969 C 255.765625 247.554688 253.679688 251.808594 251.578125 256.0625 C 249.597656 260.074219 247.160156 264.949219 243.117188 270.921875 C 242.007812 272.558594 239.019531 276.863281 234.535156 281.976562 C 233.699219 282.933594 230.117188 286.984375 224.734375 291.886719 C 221.230469 295.078125 216.851562 299.03125 210.421875 303.222656 C 207.980469 304.816406 203.648438 307.617188 197.5 310.304688 C 193.417969 312.09375 187.101562 314.800781 178.640625 315.925781 C 168.6875 317.242188 158.902344 315.949219 158.824219 314.707031 Z M 158.8125 314.707031 " fill-opacity="1" fill-rule="nonzero"/></svg>