<?xml version="1.0" encoding="UTF-8"?>
<svg xmlns="http://www.w3.org/2000/svg" viewBox="0 0 1508.12 1501.02">
  <defs>
    <style>
      .cls-1 {
        fill: #fff;
      }

      .cls-2 {
        fill: #b9bd30;
      }

      .cls-3 {
        fill: #346db5;
      }

      .cls-4 {
        fill: #6caec9;
      }

      .cls-5 {
        fill: none;
        stroke: #fff;
        stroke-miterlimit: 10;
        stroke-width: 4px;
      }
    </style>
  </defs>
  <g id="Capa_7" data-name="Capa 7">
    <path class="cls-1" d="m428.33,806.24c-.05-1.32-.27-7.34-1.34-15.3-1.06-7.93-2.46-14.12-3.28-17.46-1.89-7.72-3.96-13.75-5.22-17.22-1.88-5.16-4.97-13.47-10.81-23.49-4.53-7.77-8.73-13.14-9.96-14.69-3.42-4.32-8.7-10.35-16.04-16.62-5.27-4.5-11.34-9.71-20.65-14.21-6.11-2.95-12.31-4.97-14.46-5.66,0,0-1.83-.59-12.76-3.73-.99,1.29-2.37,3.11-4.01,5.3-2.41,3.23-7.03,9.42-11.18,15.66-3.51,5.27-5.82,9.33-10.45,17.46-3.9,6.85-6.97,12.24-10.69,19.75-2.89,5.82-6.09,12.28-9.48,21.2-4.48,11.79-6.71,21.11-7.29,23.61-1.58,6.77-3.65,15.89-4.13,28.06-.23,5.89-.55,15.57,1.94,27.94,3.18,15.79,9.09,26.74,10.69,29.63,1.86,3.33,6.67,11.52,14.94,20.23,5.29,5.57,10.03,9.29,13.85,12.28,3.83,3,8.67,6.77,15.67,10.72,5.57,3.15,9.95,4.96,14.82,6.99,4.76,1.98,11.03,4.36,18.59,6.62l4.79,1.52c-.2-.22-2.15-2.28-2.51-2.67-1.87-1.99-3.96-4.51-5.28-6.32-.62-.84-2.38-3.32-5.01-9.03-1.3-2.83-3.58-7.83-5.56-14.9-3.49-12.48-3.76-23.13-3.92-31.98-.21-11.25.75-19.8,1.18-23.21,1.18-9.35,3.01-17.15,4.65-22.94,1.68-5.95,3.48-11.01,5.06-14.99,1.2,8.06,2.75,18.84,4.42,31.62,1.12,8.59,2.33,17.93,3.64,30.17,2.14,19.92,3.21,29.88,3.37,41.55.11,7.65,0,22.13,0,22.73l.09.03c1.37-.55,3.21-1.36,5.28-2.53,1.75-.98,3.42-2.07,5.47-3.61,1.38-1.04,6.43-4.92,12.94-12.1,1.43-1.57,2.99-3.3,4.92-5.78,3.75-4.81,6.01-8.72,8.5-13.07,2.04-3.56,4.4-7.7,6.92-13.49,2.43-5.57,3.81-9.87,5.47-15.06,1.3-4.07,2.34-7.32,3.4-11.92.45-1.94,1.54-6.9,2.31-13.49.5-4.26.63-7.29.85-12.04.25-5.45.44-9.77.24-15.54Z"/>
  </g>
  <g id="Capa_1" data-name="Capa 1">
    <polygon class="cls-1" points="726.24 719.92 726.35 686.13 607.71 686.13 607.71 862.99 726.24 863.14 726.24 829.55 651.14 829.41 651.42 784.49 720.19 784.07 720.19 751.05 651.14 751.05 651.14 719.71 726.24 719.92"/>
    <path class="cls-1" d="m788.39,862.83s.32-69.35.25-104.15c10.51.04,21.12-.07,31.63-.03.02-5.98-.39-12.23-.37-18.21.01-3.53-.06-7.22-.05-10.75,0,0-11.24.07-23.09.05-3.93,0-7.18,0-9.4,0,0,0-.36-4.84.21-8.19.54-3.2,1.19-7.05,3.97-10.07,3.02-3.29,7.02-3.93,11.28-4.62,5.13-.82,9.26-.2,14.82.63,3.99.6,5.99.9,8.56,1.68.09.03,2.51.63,2.51.63v-30.22c-9.59-1.54-17.72-2.11-23.8-2.31-7.89-.26-13.71-.41-21.37,1.08-4.64.9-9.82,2.44-15.38,5-3.73,1.72-10.72,6.62-15.35,15.36-3.06,5.79-3.95,11.46-4.81,17-.92,5.88-.76,10.41-.67,13.96-5.29,0-11.21.05-16.5.05v29.02l16.44-.05.14,104.45,40.97-.31Z"/>
    <rect class="cls-1" x="836.91" y="729.79" width="40.93" height="133.36"/>
    <rect class="cls-1" x="835.45" y="678.26" width="43.99" height="32.5"/>
    <path class="cls-1" d="m1156.79,863.37c-.1-32.11-.21-64.22-.31-96.33-.06-2.48-.38-5.93-1.57-9.86-.58-1.91-2.21-6.8-6.06-11.86-.95-1.26-5.33-6.85-14.62-11.65-2.43-1.26-9.4-4.57-25.06-6.51-3.61-.45-15.37-1.76-31.95-.42-8.74.71-20.29,2.27-33.62,5.88.07,10.88.14,21.76.21,32.64l3.65-.1c6.15-3.14,11.69-5.07,15.97-6.3,9.13-2.6,16.33-3.05,18.27-3.15,4.32-.22,9.41-.45,15.87.94,6.23,1.35,10.87,2.35,14.41,6.4,4.09,4.68,4.26,10.65,4.18,13.12-1.89.02-4.51.07-7.62.21-12.08.56-21.35,2.06-25.16,2.73-11.67,2.05-17.5,3.07-24.01,5.98-6.39,2.85-14.16,6.33-19.94,14.69-5.21,7.54-6.2,15.3-6.68,19.52-1.01,8.74.65,15.4,1.09,17.06,2.74,10.37,8.5,16.73,9.77,18.09,5.49,5.88,11.28,8.54,13.15,9.34,7.39,3.16,13.7,3.04,19.21,2.94,4.42-.08,12.06-.3,20.98-4.09,9.56-4.06,15.76-10.17,19.11-14.06-.14,4.93-.28,9.86-.42,14.8h41.13Zm-41.13-34.95s-4.68,6.22-14.29,8.27c-2.33.5-12.22,2.74-18.49-.5-1.41-.73-4.23-2.23-6.26-5.46-2.55-4.03-2.25-8.19-2.09-10.49.15-2.09.61-6.17,3.9-10,2.23-2.6,4.25-3.73,8.07-5.18,5.61-2.13,7.22-2.49,16.08-3.36,8.56-.84,9.71-.79,13.08-1.05,0,0,0,27.77,0,27.77Z"/>
    <path class="cls-1" d="m1276.64,768.82h-3.34c-1.77-1.33-4.24-3.07-7.31-4.9-2.94-1.75-8.27-4.87-15.83-7.23-3.89-1.21-10.54-3.23-19.11-2.89-4.49.18-6.94.9-7.54,1.08-2.44.74-11.05,3.37-11.99,9.55-.54,3.57,1.74,6.52,2.12,7.01,1.88,2.43,4.39,3.29,8.32,4.48,7.02,2.12,10.54,3.19,13.05,3.6,8.18,1.33,20.18,3.25,30.14,9.44,3.46,2.15,11.76,7.48,15.82,17.88,2.01,5.16,2.3,9.84,2.25,12.86-.04,4.5-.75,14.39-7.31,23.82-5.49,7.91-12.31,11.5-18.17,14.59-13.06,6.88-25,7.71-33.51,8.29-4.35.3-14.54.73-27.35-1.68-11.84-2.22-21.32-6-27.98-9.23.07-11.65.14-23.3.21-34.94,1.11.03,2.23.07,3.34.1.77.72,1.92,1.76,3.39,2.93,2.63,2.11,11.86,9.18,26.37,12.6,1.7.4,9.34,2.13,19.3,1.68,7.44-.34,12.33-1.73,15.88-4.81,2.35-2.04,3-3.85,3.23-4.84.82-3.43-.96-6.32-1.36-6.93-1.21-1.85-2.76-2.76-4.18-3.57-2.45-1.4-4.56-1.8-6.6-2.21-2.5-.5-6.2-1.26-11.12-2.37-1.75-.34-4.2-.84-7.12-1.53-2.04-.48-8.37-1.98-12.85-3.54-3.1-1.09-10.12-3.55-15.97-8.92-12.04-11.04-11.85-27.68-11.8-29.8.23-8.76,3.28-15.15,4.28-17.1,7.69-15.05,22.95-20.29,29.86-22.67,7.43-2.55,13.16-3.01,20.04-3.57,7.58-.61,26.86-1.35,48.55,7.14,1.86.73,3.35,1.37,4.28,1.78v33.89Z"/>
    <path class="cls-5" d="m730.94,1016.01l27.12-74.75c.21-.58.71-.95,1.26-.95h12.98c.55,0,1.05.37,1.26.95l27.5,74.75c.37,1.01-.29,2.13-1.26,2.13h-17.27c-.57,0-1.08-.4-1.28-1l-3.24-9.79c-.2-.6-.7-.99-1.27-1l-22.04-.18c-.58,0-1.1.41-1.29,1.03l-3.06,9.9c-.19.62-.71,1.03-1.29,1.03h-16.87c-.97,0-1.63-1.11-1.26-2.12Z"/>
    <path class="cls-5" d="m760.11,989.91h11.79c1.18,0,2.01-1.65,1.61-3.21l-5.89-23.08c-.54-2.12-2.68-2.12-3.22,0l-5.89,23.08c-.4,1.57.43,3.21,1.61,3.21Z"/>
    <path class="cls-5" d="m803.98,1016.82v-74.75c0-.84.6-1.53,1.34-1.54l15.2-.21c.76-.01,1.38.68,1.38,1.54v19.45c0,1.21,1.17,1.91,2.08,1.27.53-.37,1.12-.75,1.75-1.11,1.17-.66,4.03-2.25,7.92-2.64,1.61-.16,6.68-.59,11.61,2.69,4.55,3.02,6.12,7.44,6.93,9.68.87,2.41,1.15,4.54,1.25,6.01,0,.04,0,.09,0,.13v39.24c0,.85-.61,1.54-1.36,1.54h-15.08c-.75,0-1.36-.68-1.36-1.53-.05-11.69-.09-23.39-.14-35.08,0-.1,0-.2-.03-.3-.08-.45-.34-1.75-.7-2.61-.77-1.83-2.5-2.74-2.84-2.9-2.17-1.1-4.31-.5-5.01-.31-.78.21-2.73.76-3.99,2.68-1.1,1.68-1.01,3.41-.95,4l-.23,34.55c0,.84-.6,1.51-1.34,1.53l-15.06.21c-.76.01-1.38-.68-1.38-1.54Z"/>
    <path class="cls-5" d="m861.01,1016.6v-55.25c0-.85.61-1.54,1.36-1.54h15.02c.75,0,1.36.69,1.36,1.54v55.25c0,.85-.61,1.54-1.36,1.54h-15.02c-.75,0-1.36-.69-1.36-1.54Z"/>
    <path class="cls-5" d="m863.92,951.49h7.74c.42,0,.82-.22,1.08-.6l10.97-16.17c.69-1.01.05-2.47-1.08-2.47h-14.41c-.6,0-1.13.44-1.3,1.09l-4.3,16.17c-.26.99.39,1.98,1.3,1.98Z"/>
    <path class="cls-1" d="m914.05,999.47c.48-.49,1.2-.52,1.72-.09,1.27,1.06,2.92,2.31,5.07,3.1,4.02,1.49,7.93,1,9.73,1,2.97,0,5.09-.64,6.06-2.39.66-1.18.45-2.54-.49-3.5-.51-.52-.99-1.11-1.92-1.27-3.54-.61-5.41-.68-5.45-.68-2.64-.13-6.3-.55-8.75-1-1.56-.29-5.96-1.1-9.3-4.47-4.3-4.33-4.25-10.29-4.24-12.33.01-1.97.53-6.19,3.59-10.4,2.98-4.09,6.63-5.83,10.43-7.12,3.2-1.09,10.61-2.32,22.46.11.07.01.15.04.22.06,4.09,1.57,6.16,2.8,7.29,3.69.08.06.45.36.88.7.72.57.79,1.75.12,2.41-1.57,1.56-4.56,4.52-8.84,8.77-.48.48-1.19.49-1.72.08-.24-.19-.52-.36-.84-.52-2.32-1.09-2.63-1.14-5.81-1.75-.04,0-.09-.01-.13-.02-5.14-.46-5.21-.39-6.6-.17-1.08.17-3,.51-3.54,2.15-.4,1.22-.17,2.64.76,3.43.96.81,2.81,1.03,3.22,1.06,4.55.29,10.98,1.13,13.06,1.53,6.95,1.34,10.92,7.43,11.22,8.05,2.8,5.67,1.7,11.6,1.48,13.01-.25,1.63-.62,4.75-4.16,8.56-4.06,4.37-8.68,5.82-14.14,6.73-7.07,1.18-10.97.26-13.88.17-.57-.02-10.94-1.27-14.11-4.71-.45-.49-1.69-1.53-2.68-2.34-.7-.58-.76-1.74-.11-2.39l9.38-9.46Z"/>
    <path class="cls-1" d="m957.98,963.57l.16,52.86c0,.85.61,1.53,1.36,1.53h14.93c.75,0,1.36-.69,1.36-1.54v-52.86c0-.85-.61-1.54-1.36-1.54h-15.1c-.75,0-1.36.69-1.36,1.54Z"/>
    <path class="cls-1" d="m967.28,935.18c2.65.05,4.56,1.13,5.22,1.52.88.52,4.03,2.52,5.11,6.59.99,3.71-.36,6.72-.82,7.63-.57,1.14-2.05,3.59-5.1,5-3.93,1.82-7.58.59-8.4.29-.75-.28-4.46-1.73-6.26-5.8-2.1-4.74.16-9.04.42-9.52,2.04-3.74,6.08-5.78,9.84-5.71Z"/>
    <path class="cls-1" d="m1019.55,1000.63c-1.14,1.06-3.17,2.16-5.2,2.81-2.36.76-4.28.78-5.3.78-1.83,0-3.32,0-5.09-.75-.77-.33-2.75-1.21-4.12-3.41-.65-1.05-.98-2.08-1.13-2.95-.17-.94.49-1.81,1.34-1.82,10.69-.05,21.39-.1,32.08-.15.75,0,1.36-.69,1.36-1.54v-9.56c0-.06-.01-.12-.02-.18-.19-1.82-.42-3.8-1.21-6.33-1.51-4.83-3.91-7.97-4.6-8.84-2.38-2.98-4.79-4.65-5.31-5.01-3.49-2.37-6.72-3.15-8.35-3.53-2.85-.67-5.38-.77-7.34-.68-2.19-.08-5.99.08-10.17,1.89-4.41,1.92-7.01,4.7-8.33,6.15-3,3.29-4.43,6.53-4.99,7.94-1.05,2.66-1.37,4.77-1.69,7.06-.34,2.41-.93,6.71-.21,12.22.66,5.11,1.47,11.31,6.27,16.56.49.53,3.02,3.25,7.26,5.26,4.34,2.06,8.1,2.26,11.92,2.47,2.92.16,6.63.33,11.27-.9,1.8-.48,5.29-1.44,9.04-4.09,1.42-1,2.57-2.03,3.48-2.95.61-.62.61-1.7-.01-2.31-4.5-4.44-7.37-7.26-8.7-8.57-.5-.5-1.25-.5-1.76-.02-.23.22-.43.4-.47.44Zm-20.55-21c.25-.73,1.2-3.32,3.94-4.75,2.37-1.23,4.65-.86,5.7-.68.97.16,2.52.4,4.01,1.56,1.73,1.34,2.78,3.41,2.97,5.2.08.8.19,3.22.15,2.41,0,0-5.54,0-15.85,0-.82,0-1.45-.81-1.36-1.73.06-.61.19-1.3.44-2.03Z"/>
    <path class="cls-1" d="m1055.33,1018.62c.75,0,1.36-.69,1.36-1.53.02-10.54.03-21.09.05-31.63-.08-2.02-.1-2.65-.11-2.84,0-.05,0-.1,0-.15.07-1.39.63-3.57,2.45-5.17,2.26-1.98,5-1.79,5.44-1.75,2.1.18,3.48,1.23,3.77,1.46.35.28,1.52,1.26,2.16,2.94.48,1.28.43,2.39.42,2.71-.09,2.42-.04,15.84.04,34.52,0,.85.61,1.54,1.36,1.54,5.09-.01,10.18-.03,15.27-.04.75,0,1.36-.7,1.36-1.55-.03-22.02-.05-33.65-.05-33.65,0,0-.03-3.19,1.64-5.31.86-1.09,1.92-1.59,2.45-1.83,1.7-.77,3.26-.69,4.04-.59.6.08,2.23.32,3.73,1.61,1.66,1.43,2.09,3.22,2.23,3.82.24,1.06.17,1.91.16,2.12-.16,2.34-.12,15.25.04,33.8,0,.84.61,1.53,1.36,1.53h15.24c.75,0,1.36-.69,1.36-1.54l-.05-34.05c.13,2.67-.04-5.38-.6-7.99-.24-1.14-.99-4.11-3.15-7.25-.9-1.31-2.69-3.86-6.05-5.79-2.54-1.46-4.8-1.88-6.48-2.18-.91-.16-4.58-.76-9.23.16-3.05.6-6.03,1.76-7.68,2.85-.26.17-1.48,1-2.98,2.11-.45.33-.83.62-1.08.81-.89-.95-1.34-1.43-1.57-1.67,0,0-.22-.23-.24-.25-.42-.45-3.55-3.21-8.93-4.1-.82-.14-5.19-.81-10.02.86-.99.34-3.19,1.12-5.51,2.95-.63.49-1.12.95-1.46,1.28v-3.15c0-.85-.61-1.54-1.36-1.54-4.9.01-9.8.03-14.7.04-.75,0-1.36.69-1.36,1.54v55.4c0,.85.61,1.54,1.36,1.54,5.09,0,10.18-.01,15.28-.02Z"/>
    <path class="cls-1" d="m1178.72,978.02c0-.09,0-.16-.02-.25-.11-.7-.68-4.26-1.24-6.2-1.58-5.48-6.15-8.71-6.71-9.09-4.38-3-8.9-3.01-11.25-3.02-.68,0-3.81.02-7.4,1.25-2.32.8-3.58,1.67-4.1,2.06,0,0-.02.01-.03.02-.91.68-2.12-.01-2.14-1.24v-.05c0-.84-.62-1.52-1.36-1.52l-14.75.03c-.75,0-1.36.69-1.36,1.54.01,24.82.02,49.65.04,74.47,0,.85.61,1.54,1.36,1.54,5.08,0,10.16.01,15.24.02.75,0,1.36-.69,1.36-1.54,0-6.16,0-12.31-.01-18.47,0-1.21,1.16-1.93,2.08-1.3,1.16.79,2.64,1.59,4.44,2.16,2,.63,3.58.7,5.02.76,2.27.1,7.76.33,12.75-2.95,1.77-1.16,2.92-2.4,3.36-2.88,1.61-1.8,2.52-3.61,3.02-4.85.02-.05.04-.11.06-.16.38-1.25.66-2.26.84-2.96l.62-2.42c.03-.13.05-.26.05-.39l.2-9.52s-.05-13.6-.06-15.05Zm-17.79,17.01c-.1,1.9-.17,2.32-.17,2.32-.18,1.03-.57,1.77-.75,2.11-.26.5-.88,1.63-2.16,2.55-1.64,1.18-3.35,1.27-4.05,1.3-.73.03-1.93.07-3.25-.56-1.59-.76-2.39-2.02-2.7-2.52-1.47-2.39-1.45-5.5-1.45-5.5.08-2.46.07-4.46.05-5.82-.05-3.42-.22-5.32.47-7.97.34-1.29.78-2.36,1.67-3.33,1-1.09,2.12-1.55,2.46-1.68,1.21-.46,2.23-.42,2.88-.39.83.04,2.45.14,4.01,1.27,1.26.91,1.84,2.03,2.12,2.59.66,1.32.8,2.53.82,3.22.03.8.05,1.6.06,2.41.07,3.41.06,6.74-.03,9.99Z"/>
    <path class="cls-1" d="m1185.16,1017.1l-.06-55.58c0-.85.61-1.54,1.36-1.54,4.89,0,9.78-.02,14.67-.03.76,0,1.37.69,1.36,1.55,0,1.13-.02,2.27-.02,3.4.41-.43,1-1.01,1.76-1.61,1.94-1.52,3.74-2.22,4.6-2.54,5-1.89,9.91-1.1,11.09-.88,1.76.32,4.31.79,6.81,2.49,0,0,.29.2,3.45,2.6h0l-12.64,12.81c-.5.5-1.23.52-1.76.06-.27-.24-.59-.49-.95-.73-.69-.45-2.71-1.74-5.43-1.46-.62.06-2.79.29-4.41,2-1.29,1.37-1.55,2.97-1.84,4.71-.36,2.21-.16,4.45-.15,4.45,0,0,0-.28,0-.28.02,0,.05,12.82.09,30.58,0,.85-.61,1.55-1.36,1.55l-15.21-.02c-.75,0-1.36-.69-1.36-1.53Z"/>
    <path class="cls-1" d="m1265.06,1001.22c-.41.32-1.8,1.36-3.92,2.17-.89.34-2.73,1.03-5.23,1.08-.99.02-2.82.04-4.97-.78-.89-.34-2.21-.86-3.49-2.11-.29-.29-1.55-1.55-2.27-3.67-.08-.23-.14-.45-.2-.67-.25-.97.42-1.93,1.32-1.93,10.71-.01,21.42-.02,32.14-.03.77,0,1.38-.72,1.36-1.59-.06-2.63-.1-4.74-.12-6.26-.02-1.63-.03-2.7-.18-4.27-.12-1.26-.3-3.04-.86-5.14-.3-1.13-1.06-3.66-2.75-6.49-.97-1.63-2.94-4.85-6.79-7.54-3.56-2.48-6.9-3.23-9.28-3.76-1.85-.41-5.47-1.18-10.17-.54-4.87.67-8.29,2.49-9.41,3.13-4.34,2.46-6.79,5.54-7.48,6.46-2.91,3.83-3.8,7.47-4.56,10.56-1.37,5.61-1.08,10.12-.84,13.63.2,3,.35,5.3,1.29,8.32.68,2.19,1.89,5.97,5.2,9.58,3.75,4.1,8.06,5.65,10.3,6.42,4.56,1.58,8.34,1.55,11.29,1.51,2.68-.04,6.62-.14,11.29-1.86,4.46-1.64,7.76-4.1,10.02-6.2.64-.6.64-1.71.02-2.33-2.91-2.89-5.83-5.78-8.74-8.67-.51-.5-1.26-.51-1.77-.02-.34.32-.73.66-1.17,1.01Zm-20.17-19.53s0-.07,0-.11c.08-.8.47-3.39,2.67-5.36,2.36-2.1,5.19-2.06,6.32-2.05.76,0,2.24.04,3.86.87,1.34.68,2.13,1.58,2.35,1.83.13.15.69.82,1.15,1.85.37.83.5,1.49.7,2.54.02.1.04.21.06.31.17.95-.48,1.83-1.33,1.83-5.29.02-10.57.03-15.86.05.02-.59.05-1.18.07-1.76Z"/>
    <path class="cls-1" d="m1020.79,729.69h-40.14l-1.07,6.46-.93-.7c-3.77-2.61-10.03-6.25-18.51-8.26-2.83-.67-10.18-2.17-19.61-1.01-10.09,1.24-17.16,4.88-19.06,5.9-1.99,1.07-8.88,4.92-15.46,12.58-7.01,8.16-9.85,16.17-11.25,20.24-2.95,8.6-3.4,15.7-3.81,22.09-.41,6.47-.13,11.56.07,15.28.32,5.84.55,10.03,1.81,15.71.61,2.77,1.93,7.97,4.63,14.1,1.37,3.11,2.55,5.8,4.8,9.07,1.19,1.74,4.38,6.12,9.85,10.3,1.61,1.23,5.54,4.06,11.27,6.32,1.09.43,5.28,2.03,11.07,2.89,4.83.71,8.53.58,11.34.46,2.95-.12,6.53-.29,11.12-1.41,3.11-.76,6.09-1.72,8.36-2.81,6.31-3.03,9.67-5.29,11.14-6.52.14-.12,2.16-1.51,2.91-2.04.09,1.47.17,3.53.08,5.98-.13,3.73-.25,7.28-1.58,11.39-.76,2.34-1.83,5.65-4.7,8.81-2.87,3.17-6.03,4.52-8.72,5.63-1.13.47-5.62,2.26-13.76,2.79-9.64.62-17.1-1-22.19-2.11-5.13-1.12-9.48-2.57-11.4-3.27-.3-.11-1.81-.68-3.79-1.47-1.46-.59-2.68-1.1-3.54-1.47-1.77-.14-3.26-.03-5.31-.08-.05,11.28-.11,22.22-.16,33.5,0,0,15.19,2.89,30.44,4.46,6.77.7,15.8,1.67,28,.21,9.03-1.08,15.43-2.22,17.49-2.85,7.24-2.23,13.89-4.79,20.84-10.6,5.25-4.39,8.47-8.5,9.85-10.65,4.07-6.33,5.71-11.95,6.91-16.05.47-1.61,1.99-7.01,2.71-14.28.23-2.33.32-4.3.36-5.75-.03-40.7-.06-81.39-.07-122.82Zm-46.26,95.14c-1.21.64-4.29,2.14-9.87,3.02-5.83.92-9.95,1.58-15.04-.04-1.73-.55-7.36-2.42-11.31-7.87-2.18-3-2.83-5.68-3.98-10.46-.38-1.59-1.72-7.41-1.62-15.87.07-5.81.13-10.33,2.01-16.03,1.24-3.76,3.09-9.37,8.42-13.98.78-.68,4.45-3.76,10.09-5.37,3.78-1.08,6.95-1.06,10.83-1.04,3.46.02,6.34.32,8.39.62h0c.47.24,2.85,1.1,7.14,2.58,0,20.34,0,40.68,0,61.02-1.14.97-2.83,2.26-5.06,3.43Z"/>
    <path class="cls-3" d="m372.21,904.47c.14,6.96.02,13.65-.26,20.06-2.49-2.19-5.86-5.52-9.1-10.08-4.63-6.52-7.15-12.97-9.27-20.89-5.3-19.82-5.03-37.46-4.99-39.34.27-12.37,2.28-32.06,11.66-55.2,2.75,20.98,5.51,41.94,8.27,62.91,1.99,12.85,3.4,27.1,3.68,42.54Z"/>
    <path class="cls-4" d="m268.74,650.04c7.3,6.37,13.97,10.56,18.76,13.21,14.63,8.11,28.56,11.31,38.92,13.62,3.34.74,6.1,1.26,7.9,1.58-2.99,3.74-6.94,8.88-11.3,15.2-9.04,13.12-14.66,23.84-19.36,32.78-5.93,11.3-10.18,19.35-14.51,31.06-2.48,6.71-6.42,17.52-8.82,31.79-1.97,11.69-4.84,28.75.02,50.01,1.63,7.13,5.82,24.62,18.95,40.62,4.73,5.77,9.99,10.57,12.38,12.74,8.36,7.59,16.21,12.9,22.02,16.42,13.43,6.71,21.74,9.99,26.92,11.74,0,0,.21.07,11.03,3.71-6.06-1.06-12.11-2.12-18.17-3.17-4.23-.44-9.93-1.29-16.51-3.07-4.13-1.11-10.69-3.03-19.68-7.49-12.18-6.03-25.77-12.77-40.45-26.4-8.48-7.88-20.92-19.43-29.03-38.77-2.07-4.93-5.08-13.29-7.21-29.85-3.59-27.85-1.15-51.21,1.22-67.23,3.39-23.01,10.52-57.34,26.92-98.51Z"/>
    <path class="cls-4" d="m410.37,592.06c-.84.84-17.69,17.7-28.47,29.23-3.77,4.03-6.98,7.53-10.56,11.58-2.59,2.93-4.2,4.87-9.35,10.69-12.45,14.06-15.52,17.77-19.14,22.89-1.82,2.57-8.38,12-8.38,12,3.5.99,7.15,2.15,10.94,3.51,6.73,2.42,12.79,5.08,18.17,7.77,4.59,2.77,9.6,6.14,14.79,10.23,4.66,3.67,8.73,7.33,12.22,10.78,8.21,9.28,13.83,18.04,17.57,24.72,1.77,3.16,10.06,18.25,15.09,40.03,2.88,12.46,3.63,22.52,3.88,27.22.39,7.32.15,12.7-.3,22.97-.16,3.58-.38,7.2-1.04,11.72-.56,3.84-1.24,6.91-1.73,9.13-.39,1.77-1.23,5.42-2.58,10.02-.72,2.46-2.01,6.86-4.19,12.45-1.88,4.83-4.51,10.78-8.15,17.31-1.85,3.31-3.55,6.05-4.87,8.09-1.26,1.96-3.11,4.69-5.51,7.8-3.06,3.96-6.31,8.11-11.49,12.51-3.41,2.89-6.45,4.88-8.26,5.98-2.69,1.64-5.16,2.88-7.2,3.81,1.79-.88,4.29-2.15,7.2-3.81,3.39-1.93,8.76-5.02,14.86-9.93,4.06-3.27,6.77-6,9.92-9.17,1.63-1.64,5.29-5.42,9.66-10.61,1.87-2.22,7.7-9.27,14.79-20.53,2.32-3.68,9.7-15.68,17.44-33.53,10.03-23.14,14.82-42.67,16.96-52.58,1.83-8.46,4.91-23,5.81-42.54,1.06-23.17-1.53-40.46-2.12-44.25-1.25-8.01-3.55-22.21-10.37-39.71-.87-2.23-9.24-23.38-23.21-41.73-4.87-6.4-10.19-12.14-10.58-12.57-3.52-3.79-7.44-7.66-11.79-11.51Z"/>
    <path class="cls-3" d="m362.56,462.25c-.27.86-.7,2.13-1.32,3.63-.5,1.21-1.04,2.39-3.05,6.19-1.54,2.91-2.31,4.36-3.33,6.14-1.6,2.78-2.91,4.76-3.52,5.78-3.01,5.11-3.64,5.95-7.85,12.93-3.76,6.24-7.79,12.91-12.57,21.53-.66,1.18-.85,1.55-5.63,10.4-11.04,20.48-10.95,20.31-11.13,20.65-2.32,4.36-7.84,14.84-14.41,28.37-1.48,3.05-6.11,12.63-11.83,25.39-3.15,7.02-5.26,11.74-8.03,18.44-5.84,14.16-11.03,28.53-11.03,28.53.66.6,1.56,1.41,2.66,2.36,2.01,1.72,3.6,2.98,4.04,3.32,3.07,2.39,6.14,4.15,9.86,6.28,2.77,1.58,5.26,3,8.84,4.71,2.72,1.3,6.47,2.96,11.06,4.58,4.36,1.54,7.63,2.4,11.48,3.4,5.6,1.46,10.68,2.51,11.97,2.78.75.16,5.17,1.07,5.17,1.07.48-.7,1.17-1.71,2.03-2.92,3.1-4.38,5.58-7.5,7.85-10.34,6.32-7.93,9.47-11.89,10.51-13.15,6.7-8.16,11.97-14.15,13.03-15.36,6.47-7.36,11.34-12.45,18.35-19.78,12.4-12.96,24.61-25.11,24.65-25.16,0,0,0,0,0,0,.36-.73-3.95-4.84-3.95-4.84-.79-.75-.08-.15-5.23-6.4-1.35-1.63-3.25-3.92-5.6-6.68-1.91-2.55-4.47-6.15-7.22-10.66-2.68-4.4-4.29-7.62-7.24-13.58-4.34-8.74-6.68-13.46-9.23-20.4-.5-1.37-2.28-6.26-4.07-12.9-1.24-4.59-3.28-12.97-4.51-23.69-.26-2.28-1.07-9.68-1.1-19.45-.01-4.45.14-8.25.31-11.17Z"/>
    <path class="cls-2" d="m371.86,924.22c-4.48-.43-9.89-1.12-15.98-2.3-3.24-.63-10.21-2.07-18.8-4.78-16.68-5.25-29-11.94-34.17-14.9-6.78-3.88-15.22-8.77-24.83-17.31-12.68-11.26-19.8-22.11-21.48-24.72-8.73-13.59-12.24-25.46-12.94-27.9-2.77-9.65-3.33-17.23-4.03-26.71-.81-10.98-.47-19.36-.17-26.05.54-12.19,1.84-21.8,2.69-27.95.27-1.93.95-6.77,2.04-13.02.59-3.36,1.92-10.71,4.37-21.29,1.52-6.57,4.82-20.87,10.32-38.03,4.1-12.8,10.09-29.4,10.09-29.4-.76-.66-1.8-1.59-2.99-2.74-.87-.84-3.13-3.06-5.96-6.47-2.49-2.99-5.55-6.66-8.73-12.05-1.41-2.38-5.77-10.05-7.96-18.49,0,0-.03-.1-1.86-7.38-.56,2.53-1.39,6.29-2.44,10.85-3.4,14.84-4.78,19.64-6.6,27.53-1.98,8.56-3.41,16.84-6.27,33.4-1.72,9.97-3.01,17.41-4.48,27.71-1.45,10.14-3.07,21.61-4.28,36.88-1.17,14.72-1.42,26.11-1.49,30.9-.13,8.77-.28,19.96.77,34.57.86,12.01,1.63,22.7,4.81,36.76,1.51,6.69,4.08,17.76,10.05,31.34,3.22,7.32,6.78,15.4,13.75,24.69,3.81,5.08,11.92,15.67,26.34,24.44,12.98,7.89,24.6,10.37,30.4,11.55,13.99,2.85,24.98,1.99,30.88,1.48,14.57-1.25,26.82-5.05,36.22-9.02l2.75-1.6Z"/>
    <path class="cls-2" d="m372.27,924.3c-.05-.72,2.06-1.01,6.45-3.21,3.89-1.95,6.35-3.78,10.63-6.99,8.45-6.36,14.69-12.59,15.72-13.63,13.75-13.84,22.17-27.9,27.37-36.7,2.14-3.63,6.49-11.22,11.12-21.32,4.29-9.36,7.04-16.99,8.99-22.44,1.01-2.82,2.56-7.16,4.34-13,2.3-7.53,3.93-14.11,5.06-19.21.51-2.28,2.88-13.07,4.65-27.94.79-6.64,1.58-13.43,1.82-22.63.23-8.88-.18-15.68-.5-20.87-.35-5.63-.79-12.86-2.19-21.83-2.5-16.05-6.53-27.93-7.6-31-2.15-6.18-6.37-17.15-13.77-29.83-3.95-6.77-9.31-15.85-18.43-25.78-5.61-6.11-15.43-15.58-15.43-15.58,0,0,3.27-3.33,3.66-3.72,3.78-3.84,8.72-8.41,14.35-13.68,7.11-6.65,5.68-5.4,8.51-8,6.85-6.3,7.59-6.6,15.88-14.07,5.52-4.97,11.85-10.84,11.85-10.84,0,0-2.43,5.88-3.99,10.63-.36,1.1-1.69,5.21-2.72,10.69-.6,3.17-1.67,9.8-1.49,18.36.1,4.75.55,8.3.88,10.89,1.21,9.34,3.25,16.4,4.07,19.06.8,2.61,3.83,12.19,10.29,23.6,4.24,7.49,8.23,12.72,11.87,17.49,4.51,5.91,7.09,9.29,11.29,13.54,2.71,2.75,5.99,5.74,10.48,11.1,1.7,2.03,2.94,3.66,3.46,4.34,1.29,1.69,5.3,7.08,9.83,15.41,2.33,4.28,5.86,10.84,9.02,20.05.63,1.85,3.6,10.64,5.36,22.82.82,5.7,1.82,15.14,1.21,26.81-.56,10.54-2.19,18.33-3.55,24.84-.98,4.69-2.34,11.08-5.06,19.21-3.12,9.32-6.35,15.92-9.61,22.51-3.07,6.22-6.85,13.78-13.12,23.04-1.72,2.54-6.35,9.21-13.3,17.14-1.3,1.48-6.85,7.76-15.2,15.36-5.43,4.95-12.22,11.08-22.19,17.58-3.78,2.47-10.5,6.81-20.03,10.98-6.33,2.77-16.12,6.97-29.24,8.71-15.43,2.04-30.6.04-30.72-1.89Z"/>
  </g>
</svg>